<svg width="512" height="512" viewBox="0 0 512 512" fill="none" xmlns="http://www.w3.org/2000/svg">
<path d="M0 16C0 7.16344 7.16344 0 16 0H496C504.837 0 512 7.16344 512 16V496C512 504.837 504.837 512 496 512H16C7.16344 512 0 504.837 0 496V16Z" fill="#111827"/>
<path d="M98.9545 303V292.818L130.455 260.182C133.818 256.636 136.591 253.53 138.773 250.864C140.985 248.167 142.636 245.606 143.727 243.182C144.818 240.758 145.364 238.182 145.364 235.455C145.364 232.364 144.636 229.697 143.182 227.455C141.727 225.182 139.742 223.439 137.227 222.227C134.712 220.985 131.879 220.364 128.727 220.364C125.394 220.364 122.485 221.045 120 222.409C117.515 223.773 115.606 225.697 114.273 228.182C112.939 230.667 112.273 233.576 112.273 236.909H98.8636C98.8636 231.242 100.167 226.288 102.773 222.045C105.379 217.803 108.955 214.515 113.5 212.182C118.045 209.818 123.212 208.636 129 208.636C134.848 208.636 140 209.803 144.455 212.136C148.939 214.439 152.439 217.591 154.955 221.591C157.47 225.561 158.727 230.045 158.727 235.045C158.727 238.5 158.076 241.879 156.773 245.182C155.5 248.485 153.273 252.167 150.091 256.227C146.909 260.258 142.485 265.152 136.818 270.909L118.318 290.273V290.955H160.227V303H98.9545ZM178.727 303V209.909H192.773V254.364H193.909L232.955 209.909H250.636L213.091 251.818L250.773 303H233.864L203.773 261.409L192.773 274.045V303H178.727ZM293.409 208.636C297.561 208.667 301.652 209.424 305.682 210.909C309.712 212.394 313.348 214.818 316.591 218.182C319.864 221.545 322.47 226.091 324.409 231.818C326.379 237.515 327.379 244.606 327.409 253.091C327.409 261.242 326.591 268.5 324.955 274.864C323.318 281.197 320.97 286.545 317.909 290.909C314.879 295.273 311.197 298.591 306.864 300.864C302.53 303.136 297.652 304.273 292.227 304.273C286.682 304.273 281.758 303.182 277.455 301C273.152 298.818 269.652 295.803 266.955 291.955C264.258 288.076 262.576 283.621 261.909 278.591H275.773C276.682 282.591 278.53 285.833 281.318 288.318C284.136 290.773 287.773 292 292.227 292C299.045 292 304.364 289.03 308.182 283.091C312 277.121 313.924 268.788 313.955 258.091H313.227C311.652 260.697 309.682 262.939 307.318 264.818C304.985 266.697 302.364 268.152 299.455 269.182C296.545 270.212 293.439 270.727 290.136 270.727C284.773 270.727 279.894 269.409 275.5 266.773C271.106 264.136 267.606 260.515 265 255.909C262.394 251.303 261.091 246.045 261.091 240.136C261.091 234.258 262.424 228.924 265.091 224.136C267.788 219.348 271.545 215.561 276.364 212.773C281.212 209.955 286.894 208.576 293.409 208.636ZM293.455 220.455C289.909 220.455 286.712 221.333 283.864 223.091C281.045 224.818 278.818 227.167 277.182 230.136C275.545 233.076 274.727 236.348 274.727 239.955C274.727 243.561 275.515 246.833 277.091 249.773C278.697 252.682 280.879 255 283.636 256.727C286.424 258.424 289.606 259.273 293.182 259.273C295.848 259.273 298.333 258.758 300.636 257.727C302.939 256.697 304.955 255.273 306.682 253.455C308.409 251.606 309.758 249.515 310.727 247.182C311.697 244.848 312.182 242.394 312.182 239.818C312.182 236.394 311.364 233.212 309.727 230.273C308.121 227.333 305.909 224.97 303.091 223.182C300.273 221.364 297.061 220.455 293.455 220.455ZM354.875 209.909L377.148 246.318H377.875L400.148 209.909H416.42L387.42 256.455L416.602 303H400.239L377.875 267.091H377.148L354.784 303H338.42L368.102 256.455L338.602 209.909H354.875Z" fill="white"/>
</svg>
